<svg width="147" height="43" viewBox="0 0 147 43" fill="none" xmlns="http://www.w3.org/2000/svg">
<path d="M67.0374 26.3354C66.9306 26.6166 66.5361 26.6166 66.4292 26.3354L60.6763 11.3882H56.8027V31.6091H59.6655V18.2387C59.6655 17.8749 60.1641 17.7811 60.2956 18.1202L65.5471 31.6091H67.925L73.1683 18.1257C73.2998 17.7866 73.7984 17.8831 73.7984 18.2443L73.7957 31.6063H76.6584V11.3909H72.7547L67.0374 26.3354Z" fill="#8DFFBB"/>
<path d="M83.417 22.4759H100.517C100.547 22.1699 100.574 21.8336 100.574 21.5C100.574 15.6033 95.7364 10.8672 89.8219 11.0877C84.4854 11.289 80.0694 15.7329 79.8749 21.103C79.6584 27.0521 84.3594 31.9151 90.2191 31.9151C94.4817 31.9151 98.1362 29.3265 99.7141 25.6214L96.5884 25.3733C96.2843 25.875 95.8953 26.3492 95.4789 26.793C94.068 28.2127 92.2134 28.9929 90.2191 28.9929C88.2248 28.9929 86.3701 28.2127 84.9593 26.793C83.9293 25.7565 83.2252 24.458 82.9431 23.0328C82.8883 22.7433 83.1211 22.4759 83.417 22.4759ZM83.1513 19.1761C83.1567 19.1568 83.1622 19.1347 83.1677 19.1182C83.1869 19.0603 83.2088 19.0079 83.228 18.95C83.2389 18.9224 83.2471 18.8949 83.2581 18.8701C83.3129 18.7295 83.3677 18.5916 83.4307 18.4538C83.4608 18.3794 83.4937 18.3104 83.5321 18.2388C83.5649 18.1616 83.606 18.0844 83.6444 18.01C83.6635 17.9659 83.6909 17.919 83.7183 17.8749C83.7676 17.7784 83.8252 17.6764 83.8854 17.5799C84.0471 17.3208 84.2197 17.0671 84.4059 16.8301C84.4772 16.7446 84.5457 16.6591 84.6169 16.5764C84.6415 16.5516 84.6607 16.5268 84.6826 16.502C84.7703 16.4 84.8634 16.3035 84.9566 16.2098C86.3674 14.7901 88.222 14.0099 90.2164 14.0099C92.2107 14.0099 94.0653 14.7901 95.4761 16.2098C95.5693 16.3035 95.6624 16.4028 95.7501 16.502C95.7747 16.5268 95.7939 16.5516 95.8158 16.5764C95.8925 16.6647 95.9692 16.7584 96.0432 16.8494C96.0459 16.8549 96.0542 16.8659 96.0596 16.8742C96.1446 16.9844 96.2267 17.0975 96.3062 17.2105C96.3911 17.3318 96.4706 17.4558 96.5473 17.5799C96.6212 17.7012 96.6897 17.8225 96.7555 17.9438C96.887 18.1864 96.9993 18.4317 97.1034 18.6799C97.1143 18.7047 97.1198 18.7267 97.1308 18.7515C97.1773 18.8701 97.2212 18.9859 97.265 19.1071C97.265 19.1099 97.2677 19.1182 97.2677 19.1209C97.2732 19.1402 97.2787 19.1568 97.2842 19.1788C97.3171 19.3966 97.1417 19.6089 96.9089 19.6089H83.5266C83.2992 19.6089 83.1184 19.3994 83.1485 19.1843C83.1513 19.1788 83.1513 19.1761 83.1513 19.1761Z" fill="#8DFFBB"/>
<path d="M136.675 31.8379C130.983 31.8379 126.35 27.1762 126.35 21.4476C126.35 15.7191 130.983 11.0574 136.675 11.0574C142.368 11.0574 147 15.7191 147 21.4476C147 27.1762 142.368 31.8379 136.675 31.8379ZM136.675 14.0264C132.61 14.0264 129.301 17.3566 129.301 21.4476C129.301 25.5387 132.61 28.8688 136.675 28.8688C140.741 28.8688 144.05 25.5387 144.05 21.4476C144.05 17.3566 140.741 14.0264 136.675 14.0264Z" fill="#8DFFBB"/>
<path d="M44.3027 0H20.1598C17.9244 0 15.7821 0.901462 14.1987 2.48384C9.91689 6.79267 6.76375 9.97948 2.47922 14.28C0.895807 15.8597 0 18.0265 0 20.276V41.1502C0 42.1702 0.82732 43 1.85188 43H24.795C27.0413 43 29.1836 42.0985 30.767 40.5051C35.4926 35.7497 38.9388 32.2927 43.6754 27.5263C45.2478 25.9329 46.1437 23.7771 46.1437 21.5276V1.86357C46.1437 0.832543 45.3163 0 44.3027 0ZM41.229 14.1036L32.1258 34.8372C30.7396 38.013 27.0632 39.441 23.9074 38.0461L6.00492 30.0928C4.93379 29.6132 4.45712 28.3588 4.92283 27.2809L14.0261 6.54731C15.4123 3.37428 19.0886 1.94352 22.2445 3.33844L40.1469 11.2917C41.2181 11.7714 41.6947 13.0257 41.229 14.1036Z" fill="#8DFFBB"/>
<path d="M123.613 21.3373V21.4504C123.613 25.478 121.323 28.9763 117.986 30.7021C117.91 30.7407 117.836 30.7793 117.759 30.8151C117.682 30.8509 117.608 30.8868 117.532 30.9199C117.403 30.9805 117.271 31.0356 117.143 31.088C117.008 31.1432 116.871 31.1928 116.732 31.2424C116.578 31.2975 116.419 31.3472 116.263 31.3968C116.063 31.4574 115.858 31.5098 115.65 31.5594C115.469 31.6035 115.288 31.6366 115.104 31.6669C115.077 31.6725 115.052 31.678 115.025 31.6835C114.828 31.7166 114.625 31.7441 114.422 31.7662C114.419 31.7662 114.417 31.7689 114.411 31.7689C114.041 31.8075 113.666 31.8379 113.283 31.8379C107.59 31.8379 102.958 27.1762 102.958 21.4476C102.958 15.7191 107.59 11.0574 113.283 11.0574C117.701 11.0574 121.476 13.861 122.947 17.7949H119.698C118.433 15.5454 116.03 14.0237 113.28 14.0237C109.212 14.0237 105.905 17.3511 105.905 21.4449C105.905 25.5387 109.212 28.8661 113.28 28.8661C113.433 28.8661 113.587 28.8633 113.74 28.8495C116.789 28.6648 119.34 26.6028 120.274 23.8019C120.285 23.7798 120.29 23.7523 120.301 23.7302C120.301 23.7275 120.304 23.7164 120.304 23.7137C120.309 23.6971 120.318 23.6778 120.32 23.6585C120.326 23.6089 120.323 23.5621 120.309 23.5179C120.271 23.3608 120.123 23.2312 119.945 23.2312H113.74V20.3642H123.55C123.553 20.3863 123.553 20.4111 123.556 20.4359C123.561 20.4883 123.567 20.5434 123.569 20.5985C123.58 20.7309 123.588 20.8632 123.597 20.9983C123.61 21.1085 123.613 21.2243 123.613 21.3373Z" fill="#8DFFBB"/>
</svg>
